<svg width="70" height="69" xmlns="http://www.w3.org/2000/svg" xmlns:xlink="http://www.w3.org/1999/xlink" xml:space="preserve" overflow="hidden"><g transform="translate(-1454 -942)"><path d="M30.1875 34.2844 30.1875 34.2844C30.1875 28.6781 25.4438 23.9344 19.6219 23.9344 13.8 23.9344 9.27188 28.4625 9.05625 34.2844L9.05625 34.2844" stroke="#232323" stroke-width="1.72495" stroke-linecap="round" stroke-linejoin="round" fill="none" transform="matrix(1.01449 0 0 1 1454 942)"/><path d="M23.7188 19.8375C23.7188 22.2094 21.7781 23.9344 19.6219 23.9344 17.4656 23.9344 15.525 21.9937 15.525 19.8375 15.525 17.6812 17.4656 15.7406 19.6219 15.7406 21.7781 15.7406 23.7188 17.6812 23.7188 19.8375Z" stroke="#232323" stroke-width="1.72495" stroke-linecap="round" stroke-linejoin="round" fill="none" transform="matrix(1.01449 0 0 1 1454 942)"/><path d="M33.6375 25.0125C33.6375 32.7531 27.3625 39.0281 19.6219 39.0281 11.8813 39.0281 5.60625 32.7531 5.60625 25.0125 5.60625 17.2719 11.8813 10.9969 19.6219 10.9969 27.3625 10.9969 33.6375 17.2719 33.6375 25.0125Z" stroke="#232323" stroke-width="1.72495" stroke-linecap="round" stroke-linejoin="round" fill="none" transform="matrix(1.01449 0 0 1 1454 942)"/><path d="M14.0156 42.4781 14.0156 54.5531 34.2844 54.5531" stroke="#232323" stroke-width="1.72495" stroke-linecap="round" stroke-linejoin="round" fill="none" transform="matrix(1.01449 0 0 1 1454 942)"/><path d="M34.2844 14.2312 54.3375 14.2312 54.3375 26.5219" stroke="#232323" stroke-width="1.72495" stroke-linecap="round" stroke-linejoin="round" fill="none" transform="matrix(1.01449 0 0 1 1454 942)"/><path d="M11.8594 44.4188 14.0156 41.6156 14.0156 41.6156 16.3875 44.4188" stroke="#232323" stroke-width="1.72495" stroke-linecap="round" stroke-linejoin="round" fill="none" transform="matrix(1.01449 0 0 1 1454 942)"/><path d="M52.1813 24.3656 54.3375 27.1688 54.3375 27.1688 56.7094 24.3656" stroke="#232323" stroke-width="1.72495" stroke-linecap="round" stroke-linejoin="round" fill="none" transform="matrix(1.01449 0 0 1 1454 942)"/><path d="M57.1406 37.95C55.4156 36.225 52.8281 35.1469 50.2406 35.1469 47.6531 35.1469 45.0656 36.225 43.3406 37.95 41.6156 39.675 40.5375 42.2625 40.5375 44.85 40.5375 47.4375 41.6156 50.025 43.3406 51.75 45.0656 53.475 47.6531 54.5531 50.2406 54.5531 52.8281 54.5531 55.4156 53.475 57.1406 51.75 58.8656 50.025 59.9437 47.4375 59.9437 44.85 59.9437 42.2625 58.8656 39.675 57.1406 37.95Z" stroke="#232323" stroke-width="1.72495" stroke-linecap="round" stroke-linejoin="round" fill="none" transform="matrix(1.01449 0 0 1 1454 942)"/><path d="M50.2406 36.8719 50.2406 34.9313" stroke="#232323" stroke-width="1.72495" stroke-linecap="round" stroke-linejoin="round" fill="none" transform="matrix(1.01449 0 0 1 1454 942)"/><path d="M50.2406 54.7687 50.2406 52.8281" stroke="#232323" stroke-width="1.72495" stroke-linecap="round" stroke-linejoin="round" fill="none" transform="matrix(1.01449 0 0 1 1454 942)"/><path d="M57.1406 37.95 55.8469 39.2438" stroke="#232323" stroke-width="1.72495" stroke-linecap="round" stroke-linejoin="round" fill="none" transform="matrix(1.01449 0 0 1 1454 942)"/><path d="M44.6344 50.4562 43.3406 51.75" stroke="#232323" stroke-width="1.72495" stroke-linecap="round" stroke-linejoin="round" fill="none" transform="matrix(1.01449 0 0 1 1454 942)"/><path d="M60.1594 44.85 58.2188 44.85" stroke="#232323" stroke-width="1.72495" stroke-linecap="round" stroke-linejoin="round" fill="none" transform="matrix(1.01449 0 0 1 1454 942)"/><path d="M42.2625 44.85 40.3219 44.85" stroke="#232323" stroke-width="1.72495" stroke-linecap="round" stroke-linejoin="round" fill="none" transform="matrix(1.01449 0 0 1 1454 942)"/><path d="M57.1406 51.75 55.8469 50.4562" stroke="#232323" stroke-width="1.72495" stroke-linecap="round" stroke-linejoin="round" fill="none" transform="matrix(1.01449 0 0 1 1454 942)"/><path d="M44.6344 39.2438 43.3406 37.95" stroke="#232323" stroke-width="1.72495" stroke-linecap="round" stroke-linejoin="round" fill="none" transform="matrix(1.01449 0 0 1 1454 942)"/><path d="M50.8875 44.2031C50.8875 44.2031 50.4562 43.9875 50.2406 43.9875 50.025 43.9875 49.8094 43.9875 49.5938 44.2031 49.3781 44.4188 49.3781 44.6344 49.3781 44.85 49.3781 45.0656 49.3781 45.2812 49.5938 45.4969 49.8094 45.7125 50.025 45.7125 50.2406 45.7125 50.4562 45.7125 50.6719 45.7125 50.8875 45.4969 51.1031 45.2812 51.1031 45.0656 51.1031 44.85 51.1031 44.6344 51.1031 44.4188 50.8875 44.2031Z" stroke="#232323" stroke-width="1.72495" stroke-linecap="round" stroke-linejoin="round" fill="none" transform="matrix(1.01449 0 0 1 1454 942)"/><path d="M50.2406 43.9875 50.2406 40.9688" stroke="#232323" stroke-width="1.72495" stroke-linecap="round" stroke-linejoin="round" fill="none" transform="matrix(1.01449 0 0 1 1454 942)"/><path d="M49.3781 44.85 45.2812 44.85" stroke="#232323" stroke-width="1.72495" stroke-linecap="round" stroke-linejoin="round" fill="none" transform="matrix(1.01449 0 0 1 1454 942)"/><path d="M63.3937 44.85C63.3937 51.9656 57.5719 58.0031 50.2406 58.0031 42.9094 58.0031 37.0875 52.1813 37.0875 44.85 37.0875 37.5187 42.9094 31.6969 50.2406 31.6969 57.5719 31.6969 63.3937 37.5187 63.3937 44.85Z" stroke="#232323" stroke-width="1.72495" stroke-linecap="round" stroke-linejoin="round" fill="none" transform="matrix(1.01449 0 0 1 1454 942)"/></g></svg>