<svg width="875" height="241" xmlns="http://www.w3.org/2000/svg" xmlns:xlink="http://www.w3.org/1999/xlink" xml:space="preserve" overflow="hidden"><g transform="translate(-3162 -1821)"><g><g><g><path d="M155.75 89C155.75 125.865 125.865 155.75 89 155.75 52.135 155.75 22.25 125.865 22.25 89 22.25 52.135 52.135 22.25 89 22.25 125.865 22.25 155.75 52.135 155.75 89Z" stroke="#232323" stroke-width="7.41685" stroke-linecap="round" stroke-linejoin="round" fill="none" transform="matrix(1.00562 0 0 1 3162 1855)"/><path d="M118.667 89C118.667 125.865 105.384 155.75 89 155.75 72.6156 155.75 59.3334 125.865 59.3334 89 59.3334 52.135 72.6156 22.25 89 22.25 105.384 22.25 118.667 52.135 118.667 89Z" stroke="#232323" stroke-width="7.41685" stroke-linecap="round" stroke-linejoin="round" fill="none" transform="matrix(1.00562 0 0 1 3162 1855)"/><path d="M22.25 89 155.75 89" stroke="#232323" stroke-width="7.41685" stroke-linecap="round" stroke-linejoin="round" fill="none" transform="matrix(1.00562 0 0 1 3162 1855)"/><path d="M29.6667 59.3334 148.333 59.3334" stroke="#232323" stroke-width="7.41685" stroke-linecap="round" stroke-linejoin="round" fill="none" transform="matrix(1.00562 0 0 1 3162 1855)"/><path d="M29.6667 118.667 148.333 118.667" stroke="#232323" stroke-width="7.41685" stroke-linecap="round" stroke-linejoin="round" fill="none" transform="matrix(1.00562 0 0 1 3162 1855)"/></g></g></g><g><g><g><path d="M64.0156 99.4125 79.8312 99.4125 79.8312 122.759 64.0156 122.759Z" stroke="#232323" stroke-width="6.02509" stroke-linecap="round" stroke-linejoin="round" fill="none" transform="matrix(1 0 0 1 3796 1821)"/><path d="M94.1406 88.1156 109.956 88.1156 109.956 122.006 94.1406 122.006Z" stroke="#232323" stroke-width="6.02509" stroke-linecap="round" stroke-linejoin="round" fill="none" transform="matrix(1 0 0 1 3796 1821)"/><path d="M124.266 77.5719 140.081 77.5719 140.081 122.006 124.266 122.006Z" stroke="#232323" stroke-width="6.02509" stroke-linecap="round" stroke-linejoin="round" fill="none" transform="matrix(1 0 0 1 3796 1821)"/><path d="M154.391 68.5344 170.206 68.5344 170.206 122.006 154.391 122.006Z" stroke="#232323" stroke-width="6.02509" stroke-linecap="round" stroke-linejoin="round" fill="none" transform="matrix(1 0 0 1 3796 1821)"/><path d="M46.6937 122.006 75.3125 122.006 105.437 122.006 131.797 122.006 161.922 122.006 188.281 122.006" stroke="#232323" stroke-width="6.02509" stroke-linecap="round" stroke-linejoin="round" fill="none" transform="matrix(1 0 0 1 3796 1821)"/><path d="M102.425 170.206 132.55 170.206 132.55 190.541 102.425 190.541Z" stroke="#232323" stroke-width="6.02509" stroke-linecap="round" stroke-linejoin="round" fill="none" transform="matrix(1 0 0 1 3796 1821)"/><path d="M160.416 210.122 75.3125 210.122C75.3125 204.85 77.5719 199.578 81.3375 196.566 85.1031 193.553 89.6219 190.541 94.8937 190.541L140.834 190.541C151.378 190.541 160.416 199.578 160.416 210.122Z" stroke="#232323" stroke-width="6.02509" stroke-linecap="round" stroke-linejoin="round" fill="none" transform="matrix(1 0 0 1 3796 1821)"/><path d="M27.1125 141.587 207.862 141.587" stroke="#232323" stroke-width="6.02509" stroke-linecap="round" stroke-linejoin="round" fill="none" transform="matrix(1 0 0 1 3796 1821)"/><path d="M111.462 155.144 123.512 155.144" stroke="#232323" stroke-width="6.02509" stroke-linecap="round" stroke-linejoin="round" fill="none" transform="matrix(1 0 0 1 3796 1821)"/><path d="M63.2625 39.1625 192.047 39.1625C200.331 39.1625 207.109 45.9406 207.109 54.225L207.109 153.637C207.109 161.922 200.331 168.7 192.047 168.7L42.175 168.7C33.8906 168.7 27.1125 161.922 27.1125 153.637L27.1125 73.0531" stroke="#232323" stroke-width="6.02509" stroke-linecap="round" stroke-linejoin="round" fill="none" transform="matrix(1 0 0 1 3796 1821)"/><path d="M27.1125 38.4094 45.1875 56.4844 70.0406 56.4844" stroke="#232323" stroke-width="6.02509" stroke-linecap="round" stroke-linejoin="round" fill="none" transform="matrix(1 0 0 1 3796 1821)"/><path d="M69.2875 56.4844C69.2875 70.2104 58.1604 81.3375 44.4344 81.3375 30.7084 81.3375 19.5812 70.2104 19.5812 56.4844 19.5812 42.7584 30.7084 31.6312 44.4344 31.6312 58.1604 31.6312 69.2875 42.7584 69.2875 56.4844Z" stroke="#232323" stroke-width="6.02509" stroke-linecap="round" stroke-linejoin="round" fill="none" transform="matrix(1 0 0 1 3796 1821)"/></g></g></g><g><g><g><path d="M3578.83 1970.87 3601.43 1993.47C3605.19 1997.23 3611.22 1997.23 3614.98 1993.47L3614.98 1993.47C3618.75 1989.7 3618.75 1983.68 3614.98 1979.91L3584.11 1949.03" stroke="#232323" stroke-width="6.0251" stroke-linecap="round" stroke-linejoin="round" fill="none"/><path d="M3565.28 1985.18 3587.87 2007.78C3591.64 2011.54 3597.66 2011.54 3601.43 2007.78L3601.43 2007.78C3605.19 2004.01 3605.19 1997.98 3601.43 1994.22L3578.83 1971.63" stroke="#232323" stroke-width="6.0251" stroke-linecap="round" stroke-linejoin="round" fill="none"/><path d="M3572.81 2019.83 3574.32 2021.33C3578.08 2025.1 3584.11 2025.1 3587.87 2021.33 3590.13 2019.07 3590.88 2016.81 3590.88 2014.55 3590.88 2012.29 3590.13 2009.28 3587.87 2007.78L3565.28 1985.18" stroke="#232323" stroke-width="6.0251" stroke-linecap="round" stroke-linejoin="round" fill="none"/><path d="M3520.09 1964.85 3502.02 1982.92C3498.25 1986.69 3498.25 1993.47 3502.02 1997.23L3502.02 1997.23C3505.78 2001 3512.56 2001 3516.32 1997.23L3534.4 1979.16C3538.17 1975.39 3538.17 1968.61 3534.4 1964.85L3534.4 1964.85C3530.63 1961.08 3523.86 1961.08 3520.09 1964.85Z" stroke="#232323" stroke-width="6.0251" stroke-linecap="round" stroke-linejoin="round" fill="none"/><path d="M3538.92 1974.64 3516.32 1997.23C3512.56 2001 3512.56 2007.02 3516.32 2010.79L3516.32 2010.79C3520.09 2014.55 3526.12 2014.55 3529.88 2010.79L3552.47 1988.19C3556.24 1984.43 3556.24 1978.4 3552.47 1974.64L3552.47 1974.64C3548.71 1970.87 3542.68 1970.87 3538.92 1974.64Z" stroke="#232323" stroke-width="6.0251" stroke-linecap="round" stroke-linejoin="round" fill="none"/><path d="M3548.81 1993.05C3551.75 1990.11 3556.52 1990.11 3559.46 1993.05L3561.59 1995.18C3564.53 1998.12 3564.53 2002.89 3561.59 2005.83L3541.36 2026.07C3538.42 2029.01 3533.65 2029.01 3530.71 2026.07L3528.58 2023.94C3525.63 2021 3525.63 2016.23 3528.58 2013.29Z" stroke="#232323" stroke-width="6.0251" stroke-linecap="round" stroke-linejoin="round" fill="none"/><path d="M3556.24 2010.79 3543.44 2023.59C3539.67 2027.36 3539.67 2033.38 3543.44 2037.9L3543.44 2037.9C3547.2 2041.67 3553.23 2041.67 3557.75 2037.9L3570.55 2025.1C3574.32 2021.33 3574.32 2015.31 3570.55 2010.79L3570.55 2010.79C3566.78 2007.02 3560.76 2007.02 3556.24 2010.79Z" stroke="#232323" stroke-width="6.0251" stroke-linecap="round" stroke-linejoin="round" fill="none"/><path d="M3507.29 1976.9 3501.26 1970.87C3486.95 1956.56 3486.95 1933.22 3501.26 1918.91 3508.79 1911.38 3517.83 1908.36 3527.62 1908.36 3537.41 1908.36 3546.45 1912.13 3553.98 1918.91L3559.25 1924.18" stroke="#232323" stroke-width="6.0251" stroke-linecap="round" stroke-linejoin="round" fill="none"/><path d="M3606.7 1933.97 3601.43 1939.24C3598.42 1942.25 3594.65 1943.76 3590.88 1943.76 3587.12 1943.76 3583.35 1942.25 3580.34 1939.24 3578.08 1936.98 3574.32 1935.48 3570.55 1936.23 3569.04 1936.23 3566.78 1937.73 3565.28 1939.24L3554.73 1949.78C3549.46 1955.06 3541.93 1955.06 3536.66 1949.78L3534.4 1947.53 3557.75 1924.18 3563.02 1918.91C3570.55 1911.38 3579.59 1908.36 3589.38 1908.36 3599.17 1908.36 3608.21 1912.13 3615.74 1918.91 3630.05 1933.22 3630.05 1956.56 3615.74 1970.87L3611.22 1975.39" stroke="#232323" stroke-width="6.0251" stroke-linecap="round" stroke-linejoin="round" fill="none"/><path d="M3489.97 1975.39 3466.62 1975.39" stroke="#232323" stroke-width="6.0251" stroke-linecap="round" stroke-linejoin="round" fill="none"/><path d="M3493.73 1996.48 3474.15 2009.28" stroke="#232323" stroke-width="6.0251" stroke-linecap="round" stroke-linejoin="round" fill="none"/><path d="M3506.53 2012.29 3492.22 2030.37" stroke="#232323" stroke-width="6.0251" stroke-linecap="round" stroke-linejoin="round" fill="none"/><path d="M3627.03 1975.39 3650.38 1975.39" stroke="#232323" stroke-width="6.0251" stroke-linecap="round" stroke-linejoin="round" fill="none"/><path d="M3623.27 1996.48 3642.85 2009.28" stroke="#232323" stroke-width="6.0251" stroke-linecap="round" stroke-linejoin="round" fill="none"/><path d="M3610.47 2012.29 3624.77 2030.37" stroke="#232323" stroke-width="6.0251" stroke-linecap="round" stroke-linejoin="round" fill="none"/><path d="M3547.2 1883.51 3563.77 1883.51C3567.54 1883.51 3569.8 1880.5 3569.8 1877.48 3569.8 1874.47 3569.8 1874.47 3568.29 1872.97 3566.78 1871.46 3565.28 1871.46 3563.77 1871.46L3553.23 1871.46C3549.46 1871.46 3547.2 1868.45 3547.2 1865.43 3547.2 1862.42 3547.2 1862.42 3548.71 1860.92 3550.22 1859.41 3551.72 1859.41 3553.23 1859.41L3569.8 1859.41" stroke="#232323" stroke-width="6.0251" stroke-linecap="round" stroke-linejoin="round" fill="none"/><path d="M3558.5 1858.66 3558.5 1850.37" stroke="#232323" stroke-width="6.0251" stroke-linecap="round" stroke-linejoin="round" fill="none"/><path d="M3558.5 1891.79 3558.5 1883.51" stroke="#232323" stroke-width="6.0251" stroke-linecap="round" stroke-linejoin="round" fill="none"/><path d="M3587.87 1870.71C3587.87 1887.28 3575.07 1900.08 3558.5 1900.08 3541.93 1900.08 3529.13 1887.28 3529.13 1870.71 3529.13 1854.14 3541.93 1841.33 3558.5 1841.33 3575.07 1841.33 3587.87 1854.14 3587.87 1870.71Z" stroke="#232323" stroke-width="6.0251" stroke-linecap="round" stroke-linejoin="round" fill="none"/></g></g></g></g></svg>