<svg width="59" height="60" xmlns="http://www.w3.org/2000/svg" xmlns:xlink="http://www.w3.org/1999/xlink" xml:space="preserve" overflow="hidden"><g transform="translate(-1011 -175)"><path d="M29.5 7.375C29.5 7.375 41.7917 14.75 49.1667 14.75 49.1667 14.75 46.7083 43.0208 29.5 54.0833" stroke="#232323" stroke-width="2.45837" stroke-linecap="round" stroke-linejoin="round" fill="none" transform="matrix(1 0 0 1.01695 1011 175)"/><path d="M29.5 7.375C29.5 7.375 17.2083 14.75 9.83333 14.75 9.83333 14.75 12.2917 43.0208 29.5 54.0833" stroke="#232323" stroke-width="2.45837" stroke-linecap="round" stroke-linejoin="round" fill="none" transform="matrix(1 0 0 1.01695 1011 175)"/><path d="M33.1875 27.0417C33.1875 29.0782 31.5365 30.7292 29.5 30.7292 27.4634 30.7292 25.8125 29.0782 25.8125 27.0417 25.8125 25.0051 27.4634 23.3542 29.5 23.3542 31.5365 23.3542 33.1875 25.0051 33.1875 27.0417Z" stroke="#232323" stroke-width="2.45837" stroke-linecap="round" stroke-linejoin="round" fill="none" transform="matrix(1 0 0 1.01695 1011 175)"/><path d="M29.5 30.7292 29.5 35.6458" stroke="#232323" stroke-width="2.45837" stroke-linecap="round" stroke-linejoin="round" fill="none" transform="matrix(1 0 0 1.01695 1011 175)"/></g></svg>