<svg width="68" height="69" xmlns="http://www.w3.org/2000/svg" xmlns:xlink="http://www.w3.org/1999/xlink" xml:space="preserve" overflow="hidden"><g transform="translate(-1105 -177)"><path d="M55.25 34C55.25 22.2417 45.7583 12.75 34 12.75 22.2417 12.75 12.75 22.2417 12.75 34L55.25 34Z" stroke="#232323" stroke-width="2.83339" stroke-linecap="round" stroke-linejoin="round" fill="none" transform="matrix(1 0 0 1.01471 1105 177)"/><path d="M49.5833 34C49.5833 25.3583 42.6417 18.4167 34 18.4167 25.3583 18.4167 18.4167 25.3583 18.4167 34L49.5833 34Z" stroke="#232323" stroke-width="2.83339" stroke-linecap="round" stroke-linejoin="round" fill="none" transform="matrix(1 0 0 1.01471 1105 177)"/><path d="M39.6667 34C39.6667 30.8833 37.1167 28.3333 34 28.3333 30.8833 28.3333 28.3333 30.8833 28.3333 34L39.6667 34Z" stroke="#232323" stroke-width="2.83339" stroke-linecap="round" stroke-linejoin="round" fill="none" transform="matrix(1 0 0 1.01471 1105 177)"/><path d="M35.7 28.6167 38.25 24.0833" stroke="#232323" stroke-width="2.83339" stroke-linecap="round" stroke-linejoin="round" fill="none" transform="matrix(1 0 0 1.01471 1105 177)"/><path d="M12.75 39.6667 24.0833 39.6667" stroke="#232323" stroke-width="2.83339" stroke-linecap="round" stroke-linejoin="round" fill="none" transform="matrix(1 0 0 1.01471 1105 177)"/><path d="M43.9167 39.6667 55.25 39.6667" stroke="#232323" stroke-width="2.83339" stroke-linecap="round" stroke-linejoin="round" fill="none" transform="matrix(1 0 0 1.01471 1105 177)"/><path d="M21.25 47.4583C21.25 49.4143 19.6643 51 17.7083 51 15.7523 51 14.1667 49.4143 14.1667 47.4583 14.1667 45.5023 15.7523 43.9167 17.7083 43.9167 19.6643 43.9167 21.25 45.5023 21.25 47.4583Z" stroke="#232323" stroke-width="2.83339" stroke-linecap="round" stroke-linejoin="round" fill="none" transform="matrix(1 0 0 1.01471 1105 177)"/><path d="M53.8333 47.4583C53.8333 49.4143 52.2477 51 50.2917 51 48.3357 51 46.75 49.4143 46.75 47.4583 46.75 45.5023 48.3357 43.9167 50.2917 43.9167 52.2477 43.9167 53.8333 45.5023 53.8333 47.4583Z" stroke="#232323" stroke-width="2.83339" stroke-linecap="round" stroke-linejoin="round" fill="none" transform="matrix(1 0 0 1.01471 1105 177)"/></g></svg>