<svg width="48" height="48" xmlns="http://www.w3.org/2000/svg" xmlns:xlink="http://www.w3.org/1999/xlink" xml:space="preserve" overflow="hidden"><g transform="translate(-920 -181)"><path d="M960 187C961.1 187 962 187.9 962 189L962 221C962 222.1 961.1 223 960 223L928 223C926.9 223 926 222.1 926 221L926 189C926 187.9 926.9 187 928 187L960 187Z" stroke="#232323" stroke-width="2" stroke-linecap="round" stroke-linejoin="round" fill="none"/><path d="M944 187 944 192" stroke="#232323" stroke-width="2" stroke-linecap="round" stroke-linejoin="round" fill="none"/><path d="M944 200 944 205" stroke="#232323" stroke-width="2" stroke-linecap="round" stroke-linejoin="round" fill="none"/><path d="M944 205 944 210" stroke="#232323" stroke-width="2" stroke-linecap="round" stroke-linejoin="round" fill="none"/><path d="M944 218 944 223" stroke="#232323" stroke-width="2" stroke-linecap="round" stroke-linejoin="round" fill="none"/><path d="M944 200C946.2 200 948 198.2 948 196 948 193.8 946.2 192 944 192" stroke="#232323" stroke-width="2" stroke-linecap="round" stroke-linejoin="round" fill="none"/><path d="M944 210C941.8 210 940 211.8 940 214 940 216.2 941.8 218 944 218" stroke="#232323" stroke-width="2" stroke-linecap="round" stroke-linejoin="round" fill="none"/><path d="M962 205 957 205" stroke="#232323" stroke-width="2" stroke-linecap="round" stroke-linejoin="round" fill="none"/><path d="M949 205 944 205" stroke="#232323" stroke-width="2" stroke-linecap="round" stroke-linejoin="round" fill="none"/><path d="M944 205 939 205" stroke="#232323" stroke-width="2" stroke-linecap="round" stroke-linejoin="round" fill="none"/><path d="M931 205 926 205" stroke="#232323" stroke-width="2" stroke-linecap="round" stroke-linejoin="round" fill="none"/><path d="M949 205C949 207.2 950.8 209 953 209 955.2 209 957 207.2 957 205" stroke="#232323" stroke-width="2" stroke-linecap="round" stroke-linejoin="round" fill="none"/><path d="M939 205C939 202.8 937.2 201 935 201 932.8 201 931 202.8 931 205" stroke="#232323" stroke-width="2" stroke-linecap="round" stroke-linejoin="round" fill="none"/></g></svg>