<svg width="82" height="82" xmlns="http://www.w3.org/2000/svg" xmlns:xlink="http://www.w3.org/1999/xlink" xml:space="preserve" overflow="hidden"><g transform="translate(-709 -618)"><path d="M754.214 661.086 754.208 661.086 754.183 661.08C753.863 660.995 753.538 660.919 753.208 660.854L753.144 660.84C752.108 660.64 751.055 660.539 750 660.537 749.616 660.537 749.231 660.555 748.847 660.581 748.791 660.585 748.734 660.591 748.678 660.596 748.382 660.619 748.088 660.649 747.794 660.687 747.724 660.696 747.656 660.708 747.586 660.718 747.299 660.761 747.015 660.81 746.732 660.865L746.561 660.901C746.262 660.965 745.965 661.038 745.671 661.119 745.652 661.124 745.632 661.128 745.614 661.133 745.609 661.133 745.605 661.138 745.601 661.139 742.072 662.142 739.209 664.427 739.209 668.181L739.209 671.868C739.209 672.487 739.711 672.989 740.33 672.989L759.67 672.989C760.289 672.989 760.791 672.487 760.791 671.868L760.791 668.18C760.791 664.359 757.828 662.06 754.214 661.086ZM750.498 664.259 749.986 664.814 749.482 664.291 749.482 664.291 748.142 662.902C749.343 662.752 750.557 662.748 751.759 662.89L750.496 664.258ZM741.451 668.18C741.451 665.828 743.232 664.291 745.584 663.478L747.458 665.424 746.398 670.745 741.451 670.745ZM748.684 670.743 749.359 667.366 749.363 667.366C749.446 667.422 749.536 667.467 749.632 667.499 749.655 667.507 749.678 667.513 749.701 667.52 749.799 667.55 749.9 667.565 750.002 667.567L750.014 667.567C750.115 667.565 750.214 667.548 750.311 667.519 750.335 667.512 750.357 667.504 750.381 667.496 750.469 667.465 750.552 667.424 750.63 667.372 750.635 667.369 750.641 667.368 750.646 667.365L751.319 670.744ZM758.549 670.743 753.602 670.743 752.53 665.358 754.292 663.451C754.912 663.653 755.508 663.921 756.071 664.249 757.714 665.235 758.548 666.556 758.548 668.18Z" stroke="#232323" stroke-width="0.640625"/><path d="M750 659.828C754.902 659.828 758.875 655.854 758.875 650.952 758.875 646.051 754.902 642.077 750 642.077 745.098 642.077 741.125 646.051 741.125 650.952 741.13 655.852 745.101 659.822 750 659.828ZM750 644.319C753.663 644.319 756.633 647.289 756.633 650.952 756.633 654.616 753.663 657.586 750 657.586 746.337 657.586 743.367 654.616 743.367 650.952 743.371 647.291 746.338 644.324 750 644.319Z" stroke="#232323" stroke-width="0.640625"/><path d="M782.319 653.964C780.12 653.968 778.209 655.474 777.69 657.61L772.134 657.61C771.817 652.512 769.743 647.681 766.265 643.94L770.18 640.023C772.425 641.398 775.36 640.693 776.735 638.447 778.111 636.202 777.405 633.267 775.16 631.892 772.915 630.516 769.98 631.222 768.604 633.467 767.671 634.991 767.668 636.909 768.597 638.436L764.661 642.373C760.837 638.986 755.957 637.031 750.853 636.838L750.853 631.31C753.412 630.69 754.985 628.114 754.365 625.555 753.746 622.995 751.17 621.423 748.61 622.042 746.051 622.661 744.479 625.238 745.098 627.797 745.518 629.534 746.874 630.889 748.61 631.31L748.61 636.866C743.512 637.183 738.681 639.257 734.94 642.735L731.023 638.82C732.174 636.943 731.886 634.522 730.328 632.968L730.328 632.968C728.469 631.102 725.449 631.096 723.584 632.955 721.718 634.814 721.712 637.833 723.571 639.699 725.128 641.262 727.554 641.553 729.436 640.403L733.373 644.339C729.987 648.163 728.031 653.043 727.839 658.147L722.31 658.147C721.69 655.588 719.114 654.015 716.555 654.635 713.995 655.254 712.423 657.83 713.042 660.39 713.661 662.949 716.238 664.521 718.797 663.902 720.534 663.482 721.889 662.126 722.31 660.39L727.866 660.39C728.183 665.488 730.257 670.319 733.735 674.06L729.82 677.977C727.575 676.602 724.64 677.307 723.265 679.553 721.889 681.798 722.595 684.733 724.84 686.108 727.085 687.483 730.02 686.778 731.396 684.533 732.329 683.009 732.332 681.091 731.403 679.564L735.339 675.627C739.163 679.014 744.043 680.969 749.147 681.162L749.147 686.692C746.588 687.311 745.015 689.888 745.635 692.447 746.254 695.006 748.83 696.579 751.39 695.96 753.949 695.341 755.521 692.764 754.902 690.205 754.482 688.468 753.126 687.113 751.39 686.692L751.39 681.134C756.488 680.817 761.319 678.743 765.06 675.265L768.977 679.18C767.826 681.057 768.114 683.478 769.672 685.032L769.672 685.032C771.531 686.897 774.55 686.902 776.415 685.043 778.279 683.184 778.284 680.165 776.424 678.3 774.868 676.739 772.445 676.449 770.564 677.597L766.627 673.661C770.013 669.837 771.969 664.957 772.161 659.853L777.692 659.853C778.312 662.411 780.888 663.981 783.446 663.361 786.004 662.741 787.575 660.164 786.954 657.607 786.436 655.468 784.521 653.963 782.32 653.964ZM770.877 634.169C771.864 633.183 773.462 633.183 774.449 634.169 775.435 635.155 775.435 636.754 774.449 637.74 773.462 638.726 771.864 638.726 770.877 637.74 769.892 636.759 769.888 635.164 770.87 634.179 770.872 634.176 770.875 634.174 770.877 634.171ZM747.206 626.68C747.206 625.286 748.337 624.155 749.732 624.155 751.126 624.155 752.257 625.286 752.257 626.68 752.257 628.075 751.126 629.206 749.732 629.206 748.338 629.204 747.208 628.074 747.206 626.68ZM725.169 638.122C724.193 637.125 724.211 635.526 725.207 634.551 726.189 633.59 727.758 633.59 728.74 634.551L728.74 634.551C729.743 635.52 729.77 637.118 728.801 638.121 727.832 639.125 726.233 639.152 725.23 638.183 725.209 638.163 725.189 638.142 725.169 638.121ZM717.681 661.794C716.286 661.794 715.155 660.664 715.155 659.269 715.155 657.874 716.285 656.743 717.68 656.743 719.075 656.743 720.205 657.873 720.206 659.268 720.206 659.268 720.206 659.268 720.206 659.268 720.204 660.662 719.075 661.792 717.681 661.794ZM729.123 683.831C728.136 684.817 726.537 684.817 725.551 683.831 724.565 682.845 724.565 681.246 725.551 680.26 726.538 679.274 728.136 679.274 729.123 680.26 730.106 681.246 730.106 682.842 729.123 683.829ZM752.794 691.321C752.794 692.716 751.663 693.847 750.268 693.847 748.874 693.847 747.743 692.716 747.743 691.321 747.743 689.927 748.874 688.796 750.268 688.796 751.662 688.798 752.791 689.926 752.794 691.32ZM773.043 679.139C774.438 679.14 775.568 680.27 775.567 681.664 775.567 683.059 774.437 684.189 773.042 684.189 772.373 684.189 771.731 683.923 771.258 683.449L771.258 683.449C770.272 682.464 770.271 680.866 771.257 679.88 771.73 679.406 772.373 679.14 773.043 679.14ZM750 678.939C738.988 678.939 730.061 670.012 730.061 659 730.061 647.988 738.988 639.061 750 639.061 761.012 639.061 769.939 647.988 769.939 659 769.927 670.007 761.007 678.927 750 678.939ZM782.319 661.258C780.924 661.258 779.794 660.128 779.794 658.733 779.794 657.338 780.924 656.208 782.319 656.208 783.714 656.208 784.844 657.338 784.844 658.733 784.842 660.126 783.712 661.255 782.319 661.256Z" stroke="#232323" stroke-width="0.640625"/></g></svg>