<svg width="66" height="66" xmlns="http://www.w3.org/2000/svg" xmlns:xlink="http://www.w3.org/1999/xlink" xml:space="preserve" overflow="hidden"><g transform="translate(-1681 -305)"><path d="M1738.75 338C1738.75 338 1729.68 351.75 1714 351.75 1698.32 351.75 1689.25 338 1689.25 338 1689.25 338 1698.32 324.25 1714 324.25 1729.68 324.25 1738.75 338 1738.75 338Z" stroke="#232323" stroke-width="2.75003" stroke-linecap="round" stroke-linejoin="round" fill="none"/><path d="M1720.88 338C1720.88 341.797 1717.8 344.875 1714 344.875 1710.2 344.875 1707.12 341.797 1707.12 338 1707.12 334.203 1710.2 331.125 1714 331.125 1717.8 331.125 1720.88 334.203 1720.88 338Z" stroke="#232323" stroke-width="2.75003" stroke-linecap="round" stroke-linejoin="round" fill="none"/><path d="M1694.75 353.125C1694.75 354.644 1693.52 355.875 1692 355.875 1690.48 355.875 1689.25 354.644 1689.25 353.125 1689.25 351.606 1690.48 350.375 1692 350.375 1693.52 350.375 1694.75 351.606 1694.75 353.125Z" stroke="#232323" stroke-width="2.75003" stroke-linecap="round" stroke-linejoin="round" fill="none"/><path d="M1692 342.125 1692 350.375" stroke="#232323" stroke-width="2.75003" stroke-linecap="round" stroke-linejoin="round" fill="none"/><path d="M1738.75 353.125C1738.75 354.644 1737.52 355.875 1736 355.875 1734.48 355.875 1733.25 354.644 1733.25 353.125 1733.25 351.606 1734.48 350.375 1736 350.375 1737.52 350.375 1738.75 351.606 1738.75 353.125Z" stroke="#232323" stroke-width="2.75003" stroke-linecap="round" stroke-linejoin="round" fill="none"/><path d="M1736 342.125 1736 350.375" stroke="#232323" stroke-width="2.75003" stroke-linecap="round" stroke-linejoin="round" fill="none"/><path d="M1716.75 360C1716.75 361.519 1715.52 362.75 1714 362.75 1712.48 362.75 1711.25 361.519 1711.25 360 1711.25 358.481 1712.48 357.25 1714 357.25 1715.52 357.25 1716.75 358.481 1716.75 360Z" stroke="#232323" stroke-width="2.75003" stroke-linecap="round" stroke-linejoin="round" fill="none"/><path d="M1714 351.75 1714 357.25" stroke="#232323" stroke-width="2.75003" stroke-linecap="round" stroke-linejoin="round" fill="none"/><path d="M1694.75 322.875C1694.75 324.394 1693.52 325.625 1692 325.625 1690.48 325.625 1689.25 324.394 1689.25 322.875 1689.25 321.356 1690.48 320.125 1692 320.125 1693.52 320.125 1694.75 321.356 1694.75 322.875Z" stroke="#232323" stroke-width="2.75003" stroke-linecap="round" stroke-linejoin="round" fill="none"/><path d="M1692 333.875 1692 325.625" stroke="#232323" stroke-width="2.75003" stroke-linecap="round" stroke-linejoin="round" fill="none"/><path d="M1738.75 322.875C1738.75 324.394 1737.52 325.625 1736 325.625 1734.48 325.625 1733.25 324.394 1733.25 322.875 1733.25 321.356 1734.48 320.125 1736 320.125 1737.52 320.125 1738.75 321.356 1738.75 322.875Z" stroke="#232323" stroke-width="2.75003" stroke-linecap="round" stroke-linejoin="round" fill="none"/><path d="M1736 333.875 1736 325.625" stroke="#232323" stroke-width="2.75003" stroke-linecap="round" stroke-linejoin="round" fill="none"/><path d="M1716.75 316C1716.75 317.519 1715.52 318.75 1714 318.75 1712.48 318.75 1711.25 317.519 1711.25 316 1711.25 314.481 1712.48 313.25 1714 313.25 1715.52 313.25 1716.75 314.481 1716.75 316Z" stroke="#232323" stroke-width="2.75003" stroke-linecap="round" stroke-linejoin="round" fill="none"/><path d="M1714 324.25 1714 318.75" stroke="#232323" stroke-width="2.75003" stroke-linecap="round" stroke-linejoin="round" fill="none"/></g></svg>