<svg width="84" height="85" xmlns="http://www.w3.org/2000/svg" xmlns:xlink="http://www.w3.org/1999/xlink" xml:space="preserve" overflow="hidden"><g transform="translate(-1557 -614)"><path d="M29.4 53.8125 35.4375 53.8125C36.75 53.8125 37.8 52.7625 37.8 51.45 37.8 50.1375 37.8 50.1375 37.0125 49.875 36.4875 49.35 35.9625 49.0875 35.4375 49.0875L31.7625 49.0875C30.45 49.0875 29.4 48.0375 29.4 46.725 29.4 45.4125 29.4 45.4125 30.1875 45.15 30.7125 44.625 31.2375 44.3625 31.7625 44.3625L37.8 44.3625" stroke="#232323" stroke-width="2.10005" stroke-linecap="round" stroke-linejoin="round" fill="none" transform="matrix(1 0 0 1.0119 1557 614)"/><path d="M33.6 44.8875 33.6 42" stroke="#232323" stroke-width="2.10005" stroke-linecap="round" stroke-linejoin="round" fill="none" transform="matrix(1 0 0 1.0119 1557 614)"/><path d="M33.6 56.9625 33.6 53.8125" stroke="#232323" stroke-width="2.10005" stroke-linecap="round" stroke-linejoin="round" fill="none" transform="matrix(1 0 0 1.0119 1557 614)"/><path d="M43.05 67.9875C40.1625 69.5625 37.0125 70.35 33.6 70.35 22.05 70.35 12.8625 61.1625 12.8625 49.6125 12.8625 38.0625 22.05 28.875 33.6 28.875 45.15 28.875 40.1625 29.6625 43.05 31.2375" stroke="#232323" stroke-width="2.10005" stroke-linecap="round" stroke-linejoin="round" fill="none" transform="matrix(1 0 0 1.0119 1557 614)"/><path d="M43.05 59.0625C40.6875 61.425 37.275 63 33.6 63 26.25 63 20.2125 56.9625 20.2125 49.6125 20.2125 42.2625 26.25 36.225 33.6 36.225 40.95 36.225 40.6875 37.8 43.05 40.1625" stroke="#232323" stroke-width="2.10005" stroke-linecap="round" stroke-linejoin="round" fill="none" transform="matrix(1 0 0 1.0119 1557 614)"/><path d="M51.1875 45.4125 64.05 45.4125C64.8375 45.4125 65.3625 44.8875 65.3625 44.1L65.3625 35.9625C65.3625 35.175 64.8375 34.65 64.05 34.65L51.1875 34.65" stroke="#232323" stroke-width="2.10005" stroke-linecap="round" stroke-linejoin="round" fill="none" transform="matrix(1 0 0 1.0119 1557 614)"/><path d="M55.125 51.7125 58.275 51.7125" stroke="#232323" stroke-width="2.10005" stroke-linecap="round" stroke-linejoin="round" fill="none" transform="matrix(1 0 0 1.0119 1557 614)"/><path d="M61.95 51.7125 65.3625 51.7125" stroke="#232323" stroke-width="2.10005" stroke-linecap="round" stroke-linejoin="round" fill="none" transform="matrix(1 0 0 1.0119 1557 614)"/><path d="M55.125 57.75 58.275 57.75" stroke="#232323" stroke-width="2.10005" stroke-linecap="round" stroke-linejoin="round" fill="none" transform="matrix(1 0 0 1.0119 1557 614)"/><path d="M61.95 57.75 65.3625 57.75" stroke="#232323" stroke-width="2.10005" stroke-linecap="round" stroke-linejoin="round" fill="none" transform="matrix(1 0 0 1.0119 1557 614)"/><path d="M55.125 64.05 58.275 64.05" stroke="#232323" stroke-width="2.10005" stroke-linecap="round" stroke-linejoin="round" fill="none" transform="matrix(1 0 0 1.0119 1557 614)"/><path d="M61.95 64.05 65.3625 64.05" stroke="#232323" stroke-width="2.10005" stroke-linecap="round" stroke-linejoin="round" fill="none" transform="matrix(1 0 0 1.0119 1557 614)"/><path d="M51.1875 28.6125 68.5125 28.6125C69.825 28.6125 70.875 29.6625 70.875 30.975L70.875 67.725C70.875 69.0375 69.825 70.0875 68.5125 70.0875L51.1875 70.0875" stroke="#232323" stroke-width="2.10005" stroke-linecap="round" stroke-linejoin="round" fill="none" transform="matrix(1 0 0 1.0119 1557 614)"/><path d="M58.275 21 51.1875 21 51.1875 76.65 43.05 76.9125 43.05 21 35.9625 21 47.25 7.0875 58.275 21Z" stroke="#232323" stroke-width="2.10005" stroke-linecap="round" stroke-linejoin="round" fill="none" transform="matrix(1 0 0 1.0119 1557 614)"/><path d="M17.5875 13.9125 17.5875 19.95" stroke="#232323" stroke-width="2.10005" stroke-linecap="round" stroke-linejoin="round" fill="none" transform="matrix(1 0 0 1.0119 1557 614)"/><path d="M20.475 16.8 14.4375 16.8" stroke="#232323" stroke-width="2.10005" stroke-linecap="round" stroke-linejoin="round" fill="none" transform="matrix(1 0 0 1.0119 1557 614)"/><path d="M26.775 18.9 26.775 23.8875" stroke="#232323" stroke-width="2.10005" stroke-linecap="round" stroke-linejoin="round" fill="none" transform="matrix(1 0 0 1.0119 1557 614)"/><path d="M29.4 21.525 24.4125 21.525" stroke="#232323" stroke-width="2.10005" stroke-linecap="round" stroke-linejoin="round" fill="none" transform="matrix(1 0 0 1.0119 1557 614)"/></g></svg>